<?xml version="1.0" standalone="no"?>
<!DOCTYPE svg PUBLIC "-//W3C//DTD SVG 20010904//EN"
 "http://www.w3.org/TR/2001/REC-SVG-20010904/DTD/svg10.dtd">
<svg version="1.0" xmlns="http://www.w3.org/2000/svg"
 width="609.000000pt" height="591.000000pt" viewBox="0 0 609.000000 591.000000"
 preserveAspectRatio="xMidYMid meet">

<g transform="translate(0.000000,591.000000) scale(0.100000,-0.100000)"
fill="#000000" stroke="none">
<path d="M1975 5736 c-49 -7 -119 -21 -155 -31 -83 -22 -231 -85 -224 -96 3
-5 -1 -6 -8 -4 -19 7 -210 -84 -322 -153 -50 -31 -126 -83 -170 -116 -43 -34
-104 -78 -135 -99 l-56 -37 66 62 c63 61 119 127 119 142 0 21 -160 -100 -303
-227 -134 -121 -287 -313 -287 -360 0 -13 21 3 71 55 l70 73 -61 -77 c-34 -43
-65 -80 -71 -83 -5 -4 -6 -11 -3 -17 4 -6 2 -8 -4 -4 -6 3 -19 -6 -30 -21 -26
-38 -37 -62 -17 -38 9 11 20 19 25 18 5 -2 45 40 90 91 132 153 240 227 331
228 59 0 94 -21 178 -106 43 -43 58 -53 68 -44 11 8 12 7 7 -6 -3 -9 -12 -16
-20 -16 -7 0 -17 -7 -22 -17 -5 -9 -16 -14 -25 -10 -19 7 -60 -21 -53 -38 6
-17 -113 -148 -129 -141 -17 6 -49 -29 -40 -44 6 -9 -83 -134 -109 -151 -5 -4
-6 -11 -2 -17 3 -5 -1 -12 -9 -15 -10 -4 -12 -1 -8 11 6 15 5 15 -11 3 -9 -8
-14 -21 -11 -29 3 -9 0 -19 -6 -23 -6 -3 -9 -13 -7 -20 2 -7 23 12 48 47 48
64 103 125 278 304 62 64 109 119 105 123 -3 4 0 7 8 7 9 0 25 -23 37 -52 21
-49 21 -53 5 -61 -44 -23 -313 -331 -313 -359 0 -3 16 -4 35 -3 25 1 40 9 57
31 43 54 196 229 227 258 l30 29 30 -64 c17 -35 28 -53 25 -39 -3 14 1 34 9
44 13 17 19 10 71 -95 54 -108 128 -205 148 -193 4 3 8 1 8 -4 0 -4 9 -18 21
-31 16 -17 24 -20 35 -10 21 17 18 42 -4 35 -12 -4 -26 1 -37 14 -18 20 -18
21 0 33 12 10 15 20 10 37 -5 17 -9 19 -16 9 -16 -27 -69 43 -140 184 -38 76
-69 144 -69 151 0 8 11 21 25 30 l26 17 29 -63 c16 -35 27 -51 24 -37 -3 16 0
30 9 37 19 16 24 9 77 -96 23 -45 47 -85 52 -88 5 -4 17 0 25 8 13 14 8 29
-46 134 -90 177 -88 167 -38 200 23 15 53 35 67 44 31 21 107 60 116 60 3 0 2
-6 -4 -12 -20 -25 -11 -105 10 -92 6 4 6 -2 -1 -13 -6 -11 -7 -23 -4 -27 3 -3
1 -6 -6 -6 -8 0 -11 -8 -8 -20 3 -11 1 -20 -4 -20 -5 0 -9 -11 -9 -25 0 -14
-5 -25 -11 -25 -5 0 -7 -4 -4 -10 3 -5 1 -19 -5 -31 -7 -11 -10 -23 -7 -25 2
-3 23 42 46 98 24 57 58 129 77 161 19 32 34 63 34 68 0 5 5 9 11 9 5 0 8 4 5
9 -6 10 14 60 40 101 9 14 10 18 3 9 -8 -9 -25 -20 -39 -24 -41 -13 -220 -101
-287 -141 -35 -21 -63 -44 -63 -51 0 -19 -8 -16 -43 17 -35 32 -56 26 -37 -11
11 -23 10 -23 -4 -5 -35 43 -21 63 104 146 116 78 227 138 344 184 100 41 100
41 90 24 -5 -10 -4 -10 6 -1 8 7 14 21 15 31 2 22 -41 28 -64 9 -9 -8 -32 -20
-51 -27 -19 -8 -52 -24 -72 -37 -22 -13 -44 -20 -54 -16 -11 4 -24 -2 -38 -19
-25 -30 -152 -102 -169 -95 -16 6 -60 -29 -53 -42 4 -5 2 -12 -4 -16 -21 -13
-33 41 -21 92 35 135 172 307 334 416 128 86 253 118 450 116 90 -1 91 -1 58
-16 -88 -38 -215 -165 -242 -240 -6 -20 -19 -33 -35 -37 -17 -5 -24 -12 -22
-24 4 -16 15 -19 48 -11 10 3 15 -4 15 -21 1 -23 4 -25 39 -22 21 1 36 -1 34
-5 -2 -5 -15 -31 -30 -59 -51 -98 -248 -614 -248 -651 0 -24 16 -13 91 60 150
146 451 416 592 528 19 16 19 16 -4 23 -49 14 -274 19 -297 7 -22 -12 -23 -11
-20 49 2 60 2 60 38 70 19 5 87 11 150 14 111 5 172 -4 288 -39 29 -10 23 -31
-9 -28 -18 2 -20 1 -7 -5 14 -6 0 -22 -74 -82 -101 -82 -223 -193 -223 -202 0
-3 -7 -14 -16 -24 -9 -11 -19 -28 -23 -39 -8 -26 -45 -50 -58 -37 -6 6 8 25
39 52 26 23 39 37 28 32 -11 -6 -118 -105 -236 -221 -193 -187 -218 -216 -237
-266 -22 -57 -30 -135 -14 -135 14 0 37 32 61 85 14 29 56 83 100 128 99 103
363 345 519 476 68 57 128 114 135 128 6 13 16 22 24 19 13 -5 63 30 63 45 0
9 -41 -1 -58 -14 -11 -8 -11 -5 -1 16 12 27 18 28 67 10 6 -3 12 0 12 7 0 7 7
5 17 -5 14 -14 14 -18 2 -26 -11 -7 -9 -9 8 -9 16 0 21 5 18 19 -3 17 1 19 33
14 33 -6 36 -5 24 9 -8 10 -9 19 -4 22 6 3 15 -1 22 -8 18 -23 -24 -58 -77
-64 -36 -4 -56 -15 -101 -56 -32 -29 -82 -72 -112 -96 -91 -74 -113 -97 -99
-105 7 -5 10 -4 6 2 -3 5 0 10 8 10 13 0 12 -4 -2 -19 -9 -10 -26 -18 -39 -18
-14 0 -58 -32 -117 -85 -172 -153 -338 -318 -333 -331 3 -7 0 -15 -7 -18 -29
-14 45 8 123 36 64 23 95 41 125 72 31 31 65 50 140 80 119 46 303 93 400 103
57 5 65 8 47 16 -12 5 -24 18 -27 28 -5 16 -17 19 -64 19 -75 0 -252 -27 -265
-40 -19 -19 -26 -10 -8 10 20 24 91 46 177 55 102 11 104 12 77 78 -7 16 -12
33 -12 39 0 6 -10 8 -22 5 -19 -6 -18 -3 7 19 76 63 105 63 161 2 76 -82 84
-99 84 -181 l0 -76 -42 -11 c-135 -36 -770 -260 -791 -279 -9 -9 30 -61 46
-61 7 0 95 30 197 65 146 52 405 136 552 181 13 4 15 0 10 -21 -6 -22 -25 -31
-183 -84 -96 -33 -220 -77 -275 -99 -54 -22 -163 -60 -241 -86 -79 -26 -145
-51 -148 -56 -3 -4 16 -18 42 -31 27 -12 60 -32 76 -43 l27 -20 33 32 c17 17
67 47 110 67 79 36 423 156 485 170 32 7 34 6 27 -16 -4 -13 -5 -21 -1 -18 13
12 65 203 81 298 13 76 16 138 13 239 -4 121 -9 148 -38 235 -34 103 -77 182
-137 255 -83 102 -240 196 -348 208 -22 3 -67 9 -100 14 -114 17 -249 19 -340
6z m375 -73 c-66 -33 -190 -151 -190 -182 0 -22 -15 -27 -39 -12 -12 8 -7 19
24 60 64 84 173 161 229 161 27 0 24 -3 -24 -27z m172 -43 c-5 -22 27 -41 47
-28 13 8 30 2 79 -26 34 -21 62 -39 62 -42 0 -3 -4 -2 -10 1 -5 3 -10 3 -10 0
0 -7 53 -78 89 -117 23 -26 23 -28 5 -34 -10 -4 -34 -23 -52 -41 -37 -37 -55
-38 -60 -4 -3 19 0 22 18 16 19 -6 20 -4 12 12 -9 16 -6 18 26 18 27 0 37 5
40 18 2 10 -3 17 -11 17 -9 0 -17 6 -20 13 -3 10 -9 10 -26 0 -11 -7 -26 -13
-32 -13 -6 0 -19 -10 -28 -21 -17 -21 -17 -21 -72 -3 l-56 18 38 31 c20 16 51
38 68 47 33 18 39 39 17 57 -11 9 -19 9 -35 -1 -25 -15 -28 -33 -4 -24 22 9
16 3 -30 -28 -20 -14 -37 -21 -37 -16 0 17 -20 11 -45 -15 -14 -13 -25 -20
-25 -14 0 6 -7 6 -20 -1 -17 -9 -19 -8 -13 7 8 22 23 33 46 33 26 0 47 24 46
52 l0 23 -9 -22 c-5 -12 -17 -26 -27 -31 -28 -15 -163 -26 -163 -14 0 18 74
72 123 90 47 17 62 32 31 32 -14 0 -14 3 -4 15 16 19 46 15 42 -5z m-1007 -62
c-16 -13 -40 -34 -52 -48 -64 -73 -84 -94 -78 -80 4 8 -6 2 -21 -15 -15 -16
-32 -30 -38 -30 -6 -1 -10 -6 -9 -13 2 -7 -3 -11 -10 -9 -7 1 -11 -6 -9 -18 2
-15 0 -16 -6 -7 -15 22 -33 -42 -38 -133 -6 -89 4 -118 31 -95 14 12 18 12 25
-1 7 -10 3 -16 -15 -22 -24 -8 -32 -26 -18 -40 3 -4 17 0 30 8 21 14 25 14 39
0 22 -21 8 -37 -29 -32 -22 2 -41 -4 -63 -20 -17 -13 -33 -23 -36 -23 -3 0
-15 22 -27 49 -31 73 -28 144 9 217 30 59 123 167 135 156 3 -4 3 0 0 9 -7 20
64 88 140 133 67 40 85 46 40 14z m752 -15 c-9 -9 -20 -14 -24 -10 -3 4 2 14
13 21 25 19 33 10 11 -11z m258 -93 c-3 -5 -12 -10 -18 -10 -7 0 -6 4 3 10 19
12 23 12 15 0z m-374 -63 c-11 -28 -42 -36 -71 -17 -13 8 -11 11 8 16 12 4 22
12 22 19 0 15 31 25 43 15 4 -4 3 -19 -2 -33z m-17 -73 c-44 -34 -57 -34 -24
0 19 20 36 32 38 26 2 -6 -4 -18 -14 -26z m666 16 c-14 -10 -27 -17 -29 -14
-6 5 31 33 44 33 6 1 -1 -8 -15 -19z m-965 -20 c-27 -12 -43 -12 -25 0 8 5 22
9 30 9 10 0 8 -3 -5 -9z m1079 -190 c11 -90 17 -160 13 -160 -3 0 -24 26 -47
58 -50 66 -80 93 -97 87 -22 -8 -14 25 18 79 l32 53 38 -36 c28 -28 38 -47 43
-81z m-2045 24 c-23 -24 -46 -41 -52 -37 -5 3 -23 -8 -41 -23 -18 -16 -1 1 37
37 77 72 123 92 56 23z m1169 -136 c-20 -36 -82 -117 -90 -118 -4 0 16 33 45
74 51 71 72 92 45 44z m-1318 19 c0 -2 -12 -14 -27 -28 l-28 -24 24 28 c23 25
31 32 31 24z m582 -19 c-15 -15 -16 -48 -2 -48 6 0 10 -4 10 -10 0 -5 -6 -10
-14 -10 -7 0 -20 -14 -29 -31 -8 -18 -17 -27 -21 -20 -11 17 -26 13 -27 -6 0
-10 -3 -13 -5 -6 -3 7 0 22 7 35 11 20 11 22 -3 10 -10 -8 -19 -9 -22 -3 -9
14 11 23 32 17 22 -7 57 27 46 45 -4 7 1 18 11 26 23 16 33 17 17 1z m-142
-27 c0 -12 -49 -31 -55 -21 -7 11 35 41 47 34 4 -3 8 -9 8 -13z m1385 -11 c-3
-5 -12 -10 -18 -10 -7 0 -6 4 3 10 19 12 23 12 15 0z m-1373 -42 c-12 -12 -24
-19 -28 -15 -4 3 4 15 17 26 31 25 39 17 11 -11z m1328 18 c0 -2 -7 -7 -16
-10 -8 -3 -12 -2 -9 4 6 10 25 14 25 6z m-1070 -20 c0 -2 -7 -6 -15 -10 -8 -3
-15 -1 -15 4 0 6 7 10 15 10 8 0 15 -2 15 -4z m1030 -1 c0 -2 -10 -9 -22 -15
-22 -11 -22 -10 -4 4 21 17 26 19 26 11z m-1157 -30 c-10 -7 -15 -17 -10 -21
4 -4 13 -2 19 4 17 17 28 15 28 -5 0 -9 -3 -13 -7 -10 -3 4 -15 0 -25 -10 -16
-15 -18 -15 -18 0 0 11 -6 15 -17 11 -15 -5 -16 -4 -3 5 8 6 12 11 8 11 -5 0
0 8 10 18 9 11 21 17 25 14 5 -2 0 -10 -10 -17z m-36 -90 c-7 -13 -14 -20 -15
-14 -2 5 2 16 8 24 18 21 20 18 7 -10z m-357 -165 c0 -5 -5 -10 -11 -10 -5 0
-7 5 -4 10 3 6 8 10 11 10 2 0 4 -4 4 -10z m70 -164 c0 -2 -8 -10 -17 -17 -16
-13 -17 -12 -4 4 13 16 21 21 21 13z"/>
<path d="M2826 5153 c-13 -13 -5 -25 9 -13 10 8 15 9 15 2 0 -6 -8 -15 -17
-21 -17 -9 -17 -10 0 -16 27 -11 49 2 45 27 -3 20 -38 35 -52 21z"/>
<path d="M859 5153 l-24 -28 28 24 c25 23 32 31 24 31 -2 0 -14 -12 -28 -27z"/>
<path d="M1967 5333 c-25 -4 -34 -17 -78 -110 -27 -57 -49 -106 -49 -109 0 -2
-23 -59 -51 -126 -66 -157 -142 -377 -135 -394 3 -7 0 -15 -7 -17 -8 -3 -7
-10 5 -23 19 -19 37 -12 21 8 -7 9 -6 22 2 42 l12 29 15 -22 c10 -14 21 -19
32 -15 10 4 16 1 16 -9 0 -8 -10 -17 -22 -21 -15 -4 -19 -9 -11 -13 11 -8 16
-27 14 -50 -1 -8 -10 -9 -30 -3 -22 6 -33 4 -41 -5 -10 -12 -16 -12 -36 2 -14
9 -27 13 -30 10 -3 -3 1 -30 10 -61 18 -60 39 -79 84 -74 21 2 28 9 30 32 2
17 11 30 22 33 10 3 21 15 24 26 10 40 6 122 -8 140 -12 16 -11 29 14 100 68
197 157 400 171 391 5 -3 6 2 3 10 -3 8 2 28 10 44 9 17 13 38 10 46 -4 10 -1
16 9 16 17 0 32 34 22 50 -4 6 -1 9 6 8 6 -2 14 3 16 10 4 9 -7 11 -41 8 -25
-3 -46 -3 -46 -1 0 10 65 35 68 25 2 -5 8 -8 12 -5 10 6 2 36 -9 34 -3 -1 -19
-4 -34 -6z"/>
<path d="M2215 5329 c-4 -6 -5 -13 -2 -16 7 -7 27 6 27 18 0 12 -17 12 -25 -2z"/>
<path d="M2250 5328 c0 -9 -9 -20 -20 -23 -24 -8 -17 -25 10 -25 22 0 37 37
21 53 -8 8 -11 7 -11 -5z"/>
<path d="M2397 5333 c-12 -12 -7 -22 8 -17 8 4 15 10 15 15 0 11 -14 12 -23 2z"/>
<path d="M2430 5328 c0 -9 -9 -20 -20 -23 -24 -8 -17 -25 10 -25 22 0 37 37
21 53 -8 8 -11 7 -11 -5z"/>
<path d="M2557 5296 c-4 -10 -1 -13 9 -9 7 3 14 9 14 14 0 14 -17 10 -23 -5z"/>
<path d="M1835 5239 c-4 -6 -5 -13 -2 -16 7 -7 27 6 27 18 0 12 -17 12 -25 -2z"/>
<path d="M1646 5154 c-9 -9 -14 -19 -11 -22 3 -3 13 2 22 11 9 9 14 19 11 22
-3 3 -13 -2 -22 -11z"/>
<path d="M1667 5135 c-18 -24 -17 -25 4 -25 15 0 19 5 15 15 -3 8 -1 15 4 15
6 0 10 5 10 10 0 17 -14 10 -33 -15z"/>
<path d="M1454 5046 c-10 -8 -16 -18 -12 -22 5 -4 16 0 26 9 14 13 21 14 30 5
8 -8 12 -8 12 -1 0 6 -7 14 -16 17 -20 8 -17 8 -40 -8z"/>
<path d="M1472 5017 c-8 -10 -6 -13 9 -14 19 -2 26 11 10 21 -5 3 -14 0 -19
-7z"/>
<path d="M1096 4775 c-13 -13 -13 -20 -3 -35 14 -24 30 -25 48 -4 9 11 10 20
3 32 -15 23 -29 25 -48 7z m38 -20 c-4 -8 -11 -15 -16 -15 -6 0 -5 6 2 15 7 8
14 15 16 15 2 0 1 -7 -2 -15z"/>
<path d="M3600 4703 c0 -4 155 -318 345 -698 355 -709 365 -732 323 -759 -30
-18 -65 12 -108 96 -23 43 -38 83 -35 88 3 6 2 10 -4 10 -5 0 -149 281 -319
625 -272 547 -332 658 -332 615 0 -6 140 -290 311 -631 275 -551 309 -624 296
-637 -19 -18 34 -62 -553 452 -534 467 -540 473 -532 481 3 4 40 -24 83 -61
l76 -66 42 29 c23 16 48 33 55 37 14 9 -34 -85 -49 -95 -9 -5 37 -49 310 -288
57 -50 108 -88 114 -84 5 3 7 1 4 -4 -4 -6 21 -34 56 -64 34 -29 78 -68 97
-85 99 -92 247 -214 258 -214 9 0 11 7 6 23 -4 12 -140 289 -303 614 l-296
593 -81 -29 c-44 -15 -110 -45 -145 -66 -79 -48 -213 -181 -258 -257 -96 -165
-140 -366 -126 -573 4 -60 7 -135 6 -165 0 -30 12 -120 28 -200 29 -144 33
-189 10 -111 l-12 40 -20 -39 c-10 -22 -22 -40 -26 -40 -3 0 -7 -12 -8 -26 0
-15 -5 -29 -11 -33 -5 -3 -17 -21 -26 -39 -9 -18 -24 -36 -32 -39 -7 -3 -14
-15 -14 -28 0 -12 -7 -28 -15 -35 -8 -7 -15 -18 -15 -25 0 -7 -7 -18 -16 -26
-9 -7 -23 -30 -31 -51 -8 -21 -19 -38 -24 -38 -4 0 -13 19 -19 43 -6 23 -13
48 -15 55 -3 7 -1 10 5 7 5 -3 7 26 3 77 -3 46 -1 138 5 204 9 103 18 143 60
265 27 79 64 175 81 213 17 38 29 71 27 73 -2 2 -33 -7 -70 -21 l-66 -25 38
57 c21 31 42 64 46 72 13 25 -31 -32 -66 -86 -21 -33 -50 -61 -80 -78 -27 -15
-69 -43 -95 -63 l-47 -36 33 44 c31 40 29 39 -19 -11 -72 -76 -95 -102 -95
-109 0 -4 -15 -26 -34 -50 -19 -23 -53 -80 -77 -127 -24 -46 -47 -85 -51 -86
-5 0 -42 -26 -83 -58 -173 -131 -405 -264 -565 -325 -85 -32 -310 -95 -339
-95 -12 0 33 18 99 40 158 52 367 157 536 268 75 49 139 94 143 100 3 6 -42
-21 -100 -59 -153 -101 -262 -162 -372 -208 -297 -123 -566 -180 -797 -169
-55 3 -86 2 -69 -2 17 -4 59 -24 94 -45 34 -21 83 -46 108 -55 l45 -17 23
-101 c58 -257 196 -447 414 -570 140 -79 290 -112 502 -113 188 0 384 35 542
97 21 8 40 14 41 12 1 -2 37 -54 79 -117 209 -310 516 -608 830 -805 254 -160
559 -277 821 -317 117 -17 333 -15 439 5 347 67 595 278 696 594 16 48 27 88
25 90 -2 2 -41 -16 -86 -39 -46 -23 -109 -50 -139 -60 -54 -18 -55 -18 -32 1
12 10 62 40 110 66 48 26 98 55 112 64 14 9 68 25 120 34 135 26 212 51 315
104 71 37 109 66 180 137 50 50 105 116 124 148 39 66 85 187 72 187 -9 0
-125 54 -862 406 -212 101 -392 184 -398 184 -21 0 -9 -16 93 -131 70 -77 112
-115 139 -126 32 -13 44 -26 63 -69 16 -37 71 -105 186 -230 213 -233 263
-285 243 -252 -16 26 -16 27 17 44 18 9 35 20 38 23 3 4 16 12 30 19 14 6 47
28 74 47 27 20 51 34 53 32 7 -7 -79 -161 -115 -205 l-34 -43 28 -32 c16 -17
34 -36 39 -42 41 -41 58 -67 45 -64 -9 2 -65 58 -126 124 -540 588 -836 919
-826 923 7 2 12 8 12 14 0 6 -7 5 -16 -3 -14 -11 -19 -9 -35 11 -41 54 -87 74
626 -267 253 -121 522 -250 598 -286 101 -48 137 -62 135 -50 -2 11 -222 120
-632 314 -346 164 -634 303 -640 309 -34 34 4 17 549 -245 341 -163 707 -335
716 -335 6 0 9 14 7 32 -3 35 70 -2 -853 435 -203 96 -381 181 -395 188 -63
33 -164 75 -182 75 -14 0 -19 -6 -16 -22 2 -17 22 -33 73 -60 39 -21 75 -39
80 -41 6 -2 7 -8 2 -13 -13 -14 -168 68 -183 98 -17 34 -17 33 2 52 30 31 -17
50 609 -249 193 -92 453 -217 580 -277 126 -60 242 -116 258 -125 26 -13 28
-13 25 3 -2 11 -80 53 -228 124 -124 58 -403 191 -620 295 -217 104 -414 198
-437 209 -50 23 -55 36 -13 36 17 0 30 -5 30 -12 0 -10 2 -10 9 0 10 16 36 18
556 37 557 21 615 25 615 41 0 11 -18 13 -87 9 -49 -3 -270 -12 -493 -20 -223
-8 -449 -17 -502 -21 -82 -5 -98 -3 -98 9 0 16 -39 14 735 43 231 9 422 18
424 20 3 2 -2 19 -11 37 l-15 32 -214 -7 c-118 -4 -338 -11 -489 -17 -151 -6
-358 -14 -459 -17 -241 -9 -268 -17 -221 -64 20 -20 28 -21 131 -15 91 6 109
4 109 -8 0 -11 -23 -15 -100 -20 -56 -3 -112 -2 -125 3 -56 21 -84 82 -51 109
20 17 212 27 230 12 8 -7 15 -8 18 -2 3 9 179 18 833 42 176 6 322 13 324 15
1 1 0 8 -4 14 -5 8 -47 9 -138 5 -73 -3 -274 -10 -447 -15 -173 -5 -378 -13
-455 -16 l-140 -6 -18 29 -17 28 351 345 c292 287 349 347 337 357 -14 12 -84
-54 -733 -688 -45 -44 -89 -79 -98 -79 -55 0 -109 68 -87 110 5 10 177 178
382 373 441 419 423 401 405 415 -10 8 -92 -65 -367 -328 -195 -187 -357 -340
-360 -340 -3 0 -17 10 -31 23 l-26 22 13 285 c32 716 35 833 22 842 -10 5 -15
-8 -20 -50 -6 -56 -24 -484 -37 -861 -4 -142 -9 -195 -18 -199 -17 -5 -17 67
2 418 7 151 17 374 21 496 7 211 6 221 -12 226 -10 3 -27 9 -36 13 -14 5 -18
-1 -22 -37 -6 -39 -24 -448 -42 -905 -5 -137 -9 -173 -20 -173 -8 0 -14 3 -14
8 0 4 9 174 20 377 32 615 36 755 18 755 -17 0 -17 -4 -43 -560 -8 -168 -17
-365 -21 -438 l-6 -133 -26 3 c-23 3 -55 62 -336 623 -269 536 -336 659 -336
618z m-355 -629 c132 -115 364 -318 515 -449 151 -131 277 -241 280 -244 3 -4
46 -42 97 -85 94 -80 129 -131 118 -166 -13 -40 -51 -24 -147 63 -50 45 -131
116 -178 157 -48 41 -267 233 -486 425 -220 193 -424 371 -454 397 -30 25 -52
50 -48 53 4 4 51 -33 105 -82 55 -48 288 -252 519 -452 230 -200 428 -372 439
-382 122 -111 197 -170 210 -165 18 7 19 25 2 47 -20 25 -640 575 -1070 948
-97 85 -177 158 -177 164 0 13 -2 14 275 -229z m3 -161 c175 -153 432 -377
571 -498 139 -121 247 -221 240 -222 -8 -1 -263 59 -568 135 -371 92 -556 142
-559 151 -3 10 0 12 14 7 46 -19 979 -246 1010 -246 9 0 14 6 12 13 -4 11
-378 342 -853 754 -175 151 -207 183 -191 183 4 0 149 -125 324 -277z m-187
-53 c24 -22 36 -37 27 -34 -10 3 -18 1 -18 -5 0 -6 15 -11 34 -11 18 0 39 -6
45 -13 8 -11 -12 -28 -98 -84 -85 -55 -111 -68 -115 -56 -8 19 -7 192 0 221 5
18 13 22 44 22 30 0 46 -8 81 -40z m616 -56 c-3 -3 -12 -4 -19 -1 -8 3 -5 6 6
6 11 1 17 -2 13 -5z m-1028 -220 c-51 -112 -69 -202 -70 -359 l-2 -140 -8 85
c-5 47 -7 101 -4 120 6 34 5 33 -21 -15 -14 -27 -34 -59 -44 -70 -10 -11 -20
-29 -23 -40 -3 -11 -4 5 -1 35 11 104 79 272 161 396 20 30 37 54 39 54 1 0
-11 -30 -27 -66z m208 -16 c-3 -8 -6 -5 -6 6 -1 11 2 17 5 13 3 -3 4 -12 1
-19z m10 -50 c-3 -8 -6 -5 -6 6 -1 11 2 17 5 13 3 -3 4 -12 1 -19z m10 -40
c-3 -8 -6 -5 -6 6 -1 11 2 17 5 13 3 -3 4 -12 1 -19z m10 -40 c-3 -8 -6 -5 -6
6 -1 11 2 17 5 13 3 -3 4 -12 1 -19z m1413 -18 c0 -16 -4 -30 -10 -30 -5 0
-16 14 -25 30 -15 30 -15 30 10 30 21 0 25 -5 25 -30z m58 -52 c-3 -64 -1 -73
15 -72 9 1 17 -3 17 -8 0 -6 -9 -8 -20 -5 -17 4 -20 0 -20 -27 0 -20 8 -40 20
-51 41 -37 60 1 60 126 0 55 3 69 15 69 12 0 15 -17 15 -92 0 -111 -12 -142
-56 -146 -44 -4 -84 44 -84 101 0 93 13 177 27 177 10 0 13 -17 11 -72z
m-1150 -2 c141 -35 374 -92 517 -126 405 -96 417 -100 446 -132 31 -32 45 -76
29 -92 -7 -7 -84 8 -263 52 -334 83 -554 136 -771 187 -105 24 -182 47 -184
54 -3 9 2 11 14 7 75 -22 1153 -276 1175 -276 15 0 10 26 -8 49 -16 18 -68 38
-151 56 -13 3 -193 48 -400 100 -207 51 -426 106 -487 120 -162 38 -185 45
-185 55 0 6 2 10 5 10 3 0 121 -29 263 -64z m907 14 c13 -25 13 -30 2 -30 -8
0 -21 8 -30 18 -13 14 -14 21 -5 30 16 16 15 16 33 -18z m409 -25 c16 -12 17
-17 6 -30 -21 -25 -40 -18 -40 15 0 33 6 36 34 15z m-2339 -95 c-10 -29 -23
-84 -31 -123 -12 -61 -13 -64 -10 -20 l5 51 -27 -15 c-23 -13 -34 -13 -71 -3
-31 8 -40 15 -33 22 25 25 177 145 181 142 1 -1 -5 -26 -14 -54z m1018 -46
c106 -26 228 -55 272 -65 44 -11 118 -28 165 -39 47 -11 162 -38 255 -60 94
-22 185 -43 202 -47 68 -12 61 -22 -134 -194 -103 -90 -238 -210 -301 -267
-101 -91 -137 -115 -132 -89 1 4 -21 34 -48 65 -27 31 -67 81 -90 110 l-42 54
58 71 c44 54 146 191 167 225 3 4 161 -47 246 -79 53 -20 80 -37 89 -54 7 -14
16 -25 19 -25 3 1 40 32 81 70 67 62 73 71 60 84 -14 14 -239 71 -825 208
-121 28 -227 57 -235 64 -8 8 -11 14 -6 14 4 0 94 -21 199 -46z m1525 -56 c19
-19 14 -28 -18 -28 -41 0 -40 33 1 39 3 1 10 -4 17 -11z m-406 -48 c-37 -9
-35 -7 -50 -35 -10 -17 -11 -17 -12 -3 0 22 38 48 70 47 21 -1 20 -2 -8 -9z
m-2392 -5 c0 -8 -145 -102 -175 -112 -16 -6 -39 -14 -50 -18 -11 -4 12 11 50
33 39 21 93 53 120 70 56 34 55 34 55 27z m2509 -50 c37 -41 55 -75 31 -60 -5
3 -10 13 -10 21 0 8 -5 12 -11 9 -6 -4 -22 3 -35 16 l-25 24 7 -55 c7 -58 17
-72 42 -62 10 3 13 1 8 -6 -4 -7 -20 -12 -37 -12 l-29 0 0 76 c0 68 2 76 18
70 14 -5 14 -4 -2 9 -11 8 -15 15 -9 15 6 0 29 -20 52 -45z m-78 3 c0 -18 2
-52 2 -76 1 -23 0 -42 -2 -42 -9 0 -61 54 -61 62 0 5 5 6 10 3 6 -4 10 8 10
29 0 20 -5 36 -11 36 -5 0 -7 5 -4 10 3 6 17 10 31 10 20 0 24 -5 25 -32z
m-1774 -10 c-3 -8 -6 -5 -6 6 -1 11 2 17 5 13 3 -3 4 -12 1 -19z m1743 -98
c51 -37 42 -48 -325 -380 -93 -84 -202 -184 -241 -222 -62 -61 -72 -67 -84
-54 -7 9 -9 16 -5 16 4 0 -4 9 -18 20 -14 11 -29 30 -32 41 -4 11 -14 18 -22
17 -9 -2 -18 2 -20 8 -2 6 132 135 298 285 362 328 355 322 379 316 16 -4 18
-2 10 13 -6 10 -10 25 -10 32 0 7 10 -6 21 -30 12 -23 34 -51 49 -62z m-2193
-32 c-2 -24 -4 -7 -4 37 0 44 2 63 4 43 2 -21 2 -57 0 -80z m2324 2 c-25 -21
-56 -26 -65 -11 -4 5 2 7 11 5 10 -2 29 2 43 10 35 20 39 18 11 -4z m177 -116
c51 -52 90 -100 87 -105 -4 -5 0 -9 8 -9 7 0 203 -208 434 -462 231 -255 444
-489 473 -522 30 -32 47 -57 38 -55 -8 2 -89 85 -179 184 -653 719 -935 1022
-963 1037 -13 7 -22 6 -32 -4 -12 -11 -2 -27 64 -99 674 -744 930 -1026 982
-1081 34 -38 56 -68 48 -68 -8 0 -223 230 -478 512 -256 281 -503 552 -549
602 -46 50 -90 101 -98 113 -23 34 -10 53 34 53 35 0 46 -8 131 -96z m-210 42
c44 -23 63 -51 78 -113 7 -32 67 -290 132 -573 66 -283 118 -517 115 -520 -15
-16 -40 77 -142 527 -63 274 -120 517 -127 541 -8 23 -14 50 -14 59 0 23 -39
63 -62 63 -10 0 -18 -6 -18 -14 0 -7 17 -89 39 -182 21 -93 48 -216 61 -274
12 -58 51 -233 86 -389 36 -156 63 -285 61 -287 -12 -12 -27 24 -46 106 -11
52 -57 257 -102 455 -44 198 -87 389 -94 425 -8 36 -19 87 -25 113 -18 75 -1
94 58 63z m-86 -72 c5 -16 42 -183 84 -372 41 -188 92 -420 114 -515 21 -94
37 -174 34 -176 -17 -18 -32 41 -230 947 -9 42 -22 76 -30 79 -8 3 -46 -24
-94 -67 -79 -71 -80 -73 -63 -92 10 -11 30 -26 45 -34 22 -12 33 -32 62 -121
62 -193 148 -584 132 -601 -24 -23 -440 241 -579 368 -30 28 -61 49 -67 48
-42 -10 7 44 227 249 137 127 268 251 293 276 25 25 49 45 54 43 6 -1 14 -16
18 -32z m248 -92 c19 -20 200 -219 401 -442 201 -223 412 -455 467 -516 56
-62 102 -115 102 -118 0 -20 -34 13 -177 172 -418 464 -758 838 -771 845 -7 5
-16 6 -19 4 -3 -3 7 -61 23 -129 l28 -123 185 -190 c170 -174 323 -343 394
-437 23 -30 28 -44 25 -85 l-3 -48 -60 -3 c-60 -3 -288 22 -343 37 -26 8 -29
7 -25 -10 4 -14 1 -18 -10 -13 -9 3 -23 39 -36 92 -36 149 -209 896 -215 927
-3 17 -8 40 -12 53 -9 32 6 27 46 -16z m-3539 -301 c97 -149 203 -237 389
-324 106 -49 89 -57 -24 -11 -200 81 -342 214 -431 407 -39 85 -45 112 -12 53
12 -21 47 -77 78 -125z m4632 -582 c-11 -12 -27 -19 -34 -17 -9 3 -3 10 16 20
41 22 43 21 18 -3z m-416 -161 c-3 -7 -5 -2 -5 12 0 14 2 19 5 13 2 -7 2 -19
0 -25z m-157 -292 c0 -4 -79 -63 -108 -80 -11 -7 -11 -4 -2 11 7 10 33 30 58
45 52 30 52 30 52 24z m-200 -47 c-36 -15 -166 -39 -203 -38 -18 0 -25 3 -17
6 8 3 18 10 21 15 6 9 117 25 189 26 33 1 34 0 10 -9z m-252 -46 c-10 -2 -26
-2 -35 0 -10 3 -2 5 17 5 19 0 27 -2 18 -5z"/>
<path d="M4425 3050 c10 -11 20 -20 23 -20 3 0 -3 9 -13 20 -10 11 -20 20 -23
20 -3 0 3 -9 13 -20z"/>
<path d="M4332 3030 c2 -70 18 -75 18 -6 0 31 -4 56 -9 56 -6 0 -9 -23 -9 -50z"/>
<path d="M4100 2834 c-179 -157 -182 -160 -155 -147 11 5 38 9 60 9 32 -1 40
-5 39 -18 -1 -15 1 -16 21 -5 34 18 255 230 255 245 0 16 -36 52 -52 52 -7 0
-83 -61 -168 -136z"/>
<path d="M3824 2588 l-19 -23 23 19 c21 18 27 26 19 26 -2 0 -12 -10 -23 -22z"/>
<path d="M3739 2513 l-34 -38 38 34 c20 19 37 36 37 38 0 8 -8 0 -41 -34z"/>
<path d="M3650 4704 c-1 -5 133 -276 297 -601 223 -444 302 -593 316 -593 13
0 17 8 17 38 0 20 9 208 19 417 11 209 21 439 23 510 l3 130 -81 27 c-148 48
-278 70 -441 76 -84 2 -153 1 -153 -4z"/>
<path d="M3520 4685 c0 -22 685 -1388 704 -1404 19 -16 36 -6 36 20 0 22 -235
509 -506 1052 -171 339 -175 347 -204 347 -20 0 -30 -5 -30 -15z"/>
<path d="M3012 4640 c0 -14 2 -19 5 -12 2 6 2 18 0 25 -3 6 -5 1 -5 -13z"/>
<path d="M405 4614 c-9 -15 -12 -23 -6 -20 11 7 35 46 28 46 -3 0 -12 -12 -22
-26z"/>
<path d="M950 4605 c-8 -9 -8 -15 -2 -15 12 0 26 19 19 26 -2 2 -10 -2 -17
-11z"/>
<path d="M2979 4508 c-15 -57 -47 -155 -72 -218 -25 -63 -44 -116 -42 -118 1
-2 23 46 48 105 47 112 101 292 95 319 -2 9 -15 -31 -29 -88z"/>
<path d="M970 4576 c0 -16 -2 -17 -17 -5 -14 12 -16 12 -12 0 7 -19 20 -23 39
-11 12 7 12 12 2 22 -9 9 -12 8 -12 -6z"/>
<path d="M4560 4468 c0 -18 -7 -204 -14 -413 -24 -625 -24 -649 -4 -653 12 -2
132 105 358 318 187 177 340 325 340 328 -1 10 -155 134 -263 211 -128 91
-384 241 -412 241 -3 0 -5 -15 -5 -32z"/>
<path d="M1925 4460 c-8 -13 4 -32 15 -25 12 7 50 -12 50 -25 0 -6 -15 -10
-33 -10 -25 0 -39 -7 -55 -30 -12 -16 -22 -39 -22 -50 0 -14 -5 -20 -17 -18
-13 2 -19 -5 -21 -25 -4 -35 21 -46 48 -22 26 24 25 7 -1 -25 -11 -14 -17 -18
-13 -10 7 13 5 13 -9 1 -18 -14 -23 -26 -8 -17 5 3 11 0 14 -8 4 -9 34 -16 94
-20 77 -6 91 -10 103 -29 12 -20 12 -21 -4 -8 -14 12 -16 11 -12 -10 2 -16 9
-23 21 -21 10 2 14 -1 10 -7 -3 -6 0 -9 8 -5 8 3 18 1 22 -5 4 -8 12 -8 27 0
14 7 48 10 92 6 77 -6 344 -63 362 -78 14 -11 24 -1 18 16 -3 8 6 21 19 30 14
9 28 24 31 33 6 16 5 16 -7 0 -12 -15 -24 -14 -152 18 -192 48 -522 114 -567
114 l-36 0 15 33 c9 17 36 55 60 83 l44 52 -22 37 c-16 27 -24 33 -30 23 -7
-10 -9 -10 -9 0 0 14 -26 16 -35 2z m72 -266 c-3 -3 -12 -4 -19 -1 -8 3 -5 6
6 6 11 1 17 -2 13 -5z"/>
<path d="M2002 4459 c2 -7 10 -15 17 -17 8 -3 12 1 9 9 -2 7 -10 15 -17 17 -8
3 -12 -1 -9 -9z"/>
<path d="M1299 4446 c-14 -7 -42 -16 -61 -20 -20 -4 -39 -13 -42 -21 -4 -11
-29 -15 -102 -17 -72 -2 -99 -7 -102 -17 -4 -11 3 -12 29 -7 19 4 88 9 154 12
153 6 165 9 165 37 0 38 -12 48 -41 33z m-42 -32 c-3 -3 -12 -4 -19 -1 -8 3
-5 6 6 6 11 1 17 -2 13 -5z"/>
<path d="M2082 4439 c2 -7 10 -15 17 -17 8 -3 12 1 9 9 -2 7 -10 15 -17 17 -8
3 -12 -1 -9 -9z"/>
<path d="M810 4430 c-8 -5 -12 -11 -9 -14 2 -3 11 -1 19 4 8 5 12 11 9 14 -2
3 -11 1 -19 -4z"/>
<path d="M2816 4425 c-9 -26 -7 -32 5 -12 6 10 9 21 6 23 -2 3 -7 -2 -11 -11z"/>
<path d="M1886 4414 c-5 -14 -4 -15 9 -4 17 14 19 20 6 20 -5 0 -12 -7 -15
-16z"/>
<path d="M830 4396 c0 -9 5 -16 10 -16 6 0 10 4 10 9 0 6 -4 13 -10 16 -5 3
-10 -1 -10 -9z"/>
<path d="M805 4390 c3 -5 8 -10 11 -10 2 0 4 5 4 10 0 6 -5 10 -11 10 -5 0 -7
-4 -4 -10z"/>
<path d="M240 4353 c-84 -178 -138 -335 -166 -479 -18 -95 -18 -305 0 -404 41
-224 169 -391 381 -496 141 -69 191 -79 395 -78 127 1 190 6 230 18 30 8 42
13 25 11 -16 -3 -64 -8 -106 -11 l-76 -7 -5 38 c-3 29 3 50 34 102 21 36 38
67 38 70 0 20 213 320 298 421 43 51 55 73 61 114 8 48 -3 118 -19 118 -12 0
-29 -48 -36 -102 -6 -51 -9 -56 -109 -153 -95 -93 -265 -314 -265 -345 0 -7
-23 -37 -51 -68 -27 -32 -66 -85 -85 -119 -40 -71 -52 -82 -69 -60 -8 11 -15
13 -22 6 -7 -7 -25 -6 -57 2 -37 9 -52 20 -80 58 -64 87 -97 174 -121 314 -3
20 -10 37 -15 37 -5 0 -7 -7 -4 -15 4 -8 2 -15 -4 -15 -5 0 -25 -26 -45 -57
-36 -59 -83 -110 -92 -101 -3 2 13 23 34 46 22 23 55 68 73 102 19 33 37 58
40 55 3 -3 32 3 66 13 36 12 65 16 74 11 10 -7 10 -9 1 -9 -20 0 -16 -34 13
-118 25 -73 73 -172 84 -172 3 0 13 19 22 41 14 32 14 40 4 36 -8 -3 -22 3
-31 13 -10 11 -22 17 -27 14 -4 -3 -8 -2 -7 3 1 4 -8 30 -21 57 -27 60 -34
131 -14 161 8 12 34 36 59 54 25 18 43 36 41 40 -3 4 25 36 62 72 l67 64 -65
-67 c-35 -38 -61 -68 -57 -68 3 0 37 20 74 44 42 27 72 41 78 35 5 -5 17 -9
27 -9 10 0 18 -4 18 -10 0 -5 12 -10 26 -10 17 0 23 -4 19 -12 -21 -42 51 58
76 106 17 32 48 75 68 95 47 48 136 179 128 188 -16 15 -279 -140 -334 -196
-18 -19 -33 -28 -33 -21 0 10 -5 9 -18 -3 -10 -10 -22 -17 -25 -17 -4 0 -46
-28 -93 -62 -48 -35 -94 -67 -103 -73 -9 -5 -50 -33 -93 -62 -58 -40 -77 -49
-82 -38 -3 8 -10 15 -16 15 -16 0 -12 -28 6 -38 12 -7 15 -17 10 -36 -7 -28
-24 -39 -94 -56 -35 -9 -48 -20 -73 -57 -30 -48 -41 -36 -15 16 19 37 41 54
74 57 15 2 32 10 38 19 6 8 16 15 21 15 14 0 23 46 11 58 -12 12 23 49 42 45
25 -6 90 49 84 70 -4 13 1 17 24 17 22 0 62 23 140 79 104 74 397 263 506 326
27 16 87 38 133 50 74 19 126 46 112 59 -5 5 -117 10 -170 7 -44 -1 -272 -136
-506 -299 -85 -59 -193 -134 -241 -167 -76 -53 -87 -64 -90 -93 -4 -38 -34
-55 -89 -50 -38 3 -85 -36 -135 -114 -17 -26 -34 -45 -39 -43 -4 3 -5 -5 -2
-17 4 -17 3 -20 -6 -13 -23 22 -53 169 -54 265 -2 107 1 115 86 238 63 92 168
189 242 226 55 26 81 28 57 4 -7 -7 -12 -21 -12 -33 0 -11 -13 -52 -29 -90
-17 -39 -26 -71 -20 -73 14 -5 11 -24 -9 -46 -19 -22 -50 -113 -57 -166 -2
-16 -6 -34 -10 -40 -3 -5 -2 -10 4 -10 6 0 15 9 21 20 8 14 8 20 0 20 -7 0 -7
7 1 21 8 15 13 18 19 10 12 -21 -1 -58 -26 -71 -18 -10 -21 -16 -13 -27 9 -10
6 -13 -12 -13 -26 0 -57 -16 -48 -24 11 -12 82 19 91 40 6 12 16 20 23 18 8
-3 12 5 12 23 0 15 8 68 17 116 9 48 14 93 10 99 -4 6 -3 8 3 5 5 -3 18 19 28
51 23 74 89 227 106 244 11 12 18 11 48 -4 19 -10 41 -18 48 -18 10 0 6 -14
-10 -47 -26 -52 -54 -135 -87 -253 -32 -118 5 -66 51 72 44 135 85 228 99 228
6 0 2 -17 -9 -37 -21 -43 -76 -201 -86 -251 l-7 -33 119 79 c65 44 187 123
272 176 174 109 181 114 181 131 0 17 -211 35 -422 35 -167 0 -178 -1 -178
-19 0 -10 -6 -23 -12 -29 -17 -13 -76 27 -71 48 4 12 2 12 -9 -1 -7 -9 -29
-19 -49 -23 -67 -12 -154 -65 -238 -142 -45 -42 -90 -93 -101 -113 -10 -20
-19 -29 -19 -21 0 62 159 236 262 287 102 51 227 88 227 67 0 -3 -5 -15 -11
-27 -12 -21 -11 -21 8 -4 11 9 23 14 26 10 4 -3 18 5 31 20 l23 25 -28 32
c-16 17 -29 34 -29 38 0 4 -39 5 -87 1 -106 -7 -170 -36 -251 -112 -67 -65
-89 -95 -118 -166 -13 -31 -24 -51 -24 -45 0 17 65 203 99 283 17 41 30 76 28
78 -2 1 -10 -9 -17 -24z m-143 -515 c-3 -7 -5 -2 -5 12 0 14 2 19 5 13 2 -7 2
-19 0 -25z m1033 18 c0 -8 -14 -16 -37 -18 -49 -7 -51 -4 -11 15 41 20 48 21
48 3z m-1043 -68 c-3 -7 -5 -2 -5 12 0 14 2 19 5 13 2 -7 2 -19 0 -25z m643
-192 c0 -2 -8 -10 -17 -17 -16 -13 -17 -12 -4 4 13 16 21 21 21 13z m-248 -37
c-12 -11 -20 -24 -17 -30 4 -5 2 -9 -3 -9 -10 0 -22 23 -22 40 0 7 17 13 54
19 6 0 0 -8 -12 -20z m-262 -334 c0 -8 -2 -15 -4 -15 -2 0 -6 7 -10 15 -3 8
-1 15 4 15 6 0 10 -7 10 -15z m30 -46 c0 -6 -4 -7 -10 -4 -5 3 -10 11 -10 16
0 6 5 7 10 4 6 -3 10 -11 10 -16z m229 -113 c29 -54 50 -100 49 -102 -5 -5
-127 89 -174 132 -22 22 -36 36 -30 32 19 -14 42 -8 66 17 13 14 27 24 31 23
4 -2 30 -47 58 -102z m185 62 c-3 -5 -12 -1 -20 9 -20 26 -17 35 5 16 11 -9
18 -21 15 -25z m216 -218 c0 -5 -7 -7 -15 -4 -8 4 -15 8 -15 10 0 2 7 4 15 4
8 0 15 -4 15 -10z"/>
<path d="M2786 4355 c-9 -26 -7 -32 5 -12 6 10 9 21 6 23 -2 3 -7 -2 -11 -11z"/>
<path d="M768 4343 c-79 -3 -88 -6 -88 -23 0 -10 -5 -22 -10 -25 -16 -10 8
-35 31 -35 11 0 19 -4 19 -9 0 -4 51 -9 113 -9 61 -1 176 -5 254 -8 l143 -7
19 -32 c13 -22 29 -34 51 -39 58 -11 79 -7 111 25 17 17 37 28 45 25 9 -3 19
4 26 19 9 21 7 31 -16 65 -16 25 -36 42 -54 46 -15 3 -33 7 -39 10 -18 5 -16
-3 8 -42 12 -20 26 -31 32 -27 7 3 8 2 4 -3 -4 -4 -18 -9 -30 -9 -23 0 -23 -1
-14 -50 4 -16 4 -24 1 -17 -3 6 -16 12 -28 12 -12 0 -27 5 -33 11 -8 8 -13 8
-17 0 -4 -6 -13 -11 -21 -11 -10 0 -7 11 10 44 13 25 20 48 15 56 -13 21 -332
40 -532 33z m-23 -23 c-3 -5 -16 -15 -28 -21 -22 -12 -22 -12 -3 10 19 21 43
30 31 11z m687 -22 c-13 -13 -32 -2 -32 18 0 12 4 13 21 3 14 -7 18 -14 11
-21z m-622 -23 c0 -8 -4 -15 -10 -15 -5 0 -7 7 -4 15 4 8 8 15 10 15 2 0 4 -7
4 -15z"/>
<path d="M1625 4299 c-56 -30 -74 -47 -101 -101 -28 -56 -30 -89 -7 -129 15
-25 24 -29 58 -29 22 1 51 7 65 15 25 14 25 15 -10 10 l-35 -5 32 10 c18 6 35
16 39 22 5 7 2 9 -7 6 -40 -15 -61 -19 -58 -12 2 5 23 46 47 92 36 70 46 83
65 80 14 -2 23 -11 25 -25 2 -16 -1 -21 -10 -18 -9 4 -22 -11 -36 -40 -25 -53
-27 -59 -9 -49 8 5 8 2 -2 -9 -21 -26 3 -20 29 8 12 13 27 22 32 19 12 -8 38
59 38 100 0 72 -74 98 -155 55z m55 -6 c-8 -3 -26 -10 -39 -15 -13 -5 -22 -11
-19 -14 3 -2 17 0 32 5 14 6 26 8 26 5 0 -6 -89 -174 -97 -184 -7 -8 -33 32
-32 49 0 9 6 3 13 -13 l13 -29 36 74 c20 40 35 75 33 77 -3 2 -14 -1 -25 -8
-16 -8 -21 -8 -21 1 0 7 -12 2 -27 -12 l-28 -24 29 32 c30 33 81 63 106 62 13
-1 13 -1 0 -6z m89 -62 c0 -9 -5 -25 -10 -36 -7 -15 -8 -12 -3 13 4 22 0 42
-11 60 l-16 27 20 -24 c12 -13 21 -31 20 -40z m-242 -118 c-3 -10 -5 -2 -5 17
0 19 2 27 5 18 2 -10 2 -26 0 -35z m39 -51 c-4 -3 -14 2 -24 12 -16 18 -16 18
6 6 13 -6 21 -14 18 -18z"/>
<path d="M1310 4259 c0 -5 5 -7 10 -4 6 3 10 8 10 11 0 2 -4 4 -10 4 -5 0 -10
-5 -10 -11z"/>
<path d="M690 4239 c0 -5 5 -7 10 -4 6 3 10 8 10 11 0 2 -4 4 -10 4 -5 0 -10
-5 -10 -11z"/>
<path d="M1665 4180 c-20 -40 -34 -74 -31 -77 2 -3 21 27 41 67 20 40 34 74
31 77 -2 3 -21 -27 -41 -67z"/>
<path d="M1836 4168 c5 -8 1 -9 -12 -4 -13 5 -16 4 -9 -3 12 -12 55 -3 55 10
0 5 -9 9 -21 9 -13 0 -18 -4 -13 -12z"/>
<path d="M1696 4105 c-22 -19 -33 -35 -26 -35 19 0 -19 -40 -39 -41 -10 0 -11
-2 -4 -6 14 -5 87 43 123 82 23 26 23 27 3 16 -30 -15 -38 -14 -23 4 20 24 8
17 -34 -20z"/>
<path d="M1818 4105 c-6 -13 -15 -22 -19 -19 -5 3 -20 -3 -34 -12 -20 -13 -25
-23 -20 -41 7 -28 -23 -46 -38 -22 -8 13 -15 9 -43 -19 -19 -19 -34 -39 -34
-44 0 -4 -5 -8 -11 -8 -5 0 -7 4 -4 10 3 6 -1 7 -9 4 -10 -4 -18 1 -22 11 -4
9 -10 13 -13 8 -3 -4 -22 -19 -41 -32 -81 -55 -92 -88 -149 -452 -23 -150 -71
-487 -71 -504 0 -2 -12 -6 -26 -9 -15 -4 -24 -9 -22 -11 5 -5 169 53 178 62 3
3 -5 2 -17 -1 -18 -6 -23 -3 -23 10 0 35 42 303 61 389 30 133 57 299 51 309
-2 4 -8 2 -13 -5 -22 -34 -7 21 26 96 38 88 52 99 124 91 40 -4 60 -17 61 -40
0 -6 9 0 20 12 11 12 20 25 20 30 0 6 11 17 24 25 15 10 23 26 24 44 1 50 14
91 33 109 21 19 25 34 9 34 -6 0 -15 -11 -22 -25z"/>
<path d="M1480 4072 c0 -7 11 -24 25 -37 19 -20 34 -25 67 -24 32 2 35 3 13 6
-61 7 -75 14 -89 41 -9 15 -15 21 -16 14z"/>
<path d="M1850 4065 c0 -5 8 -18 18 -29 16 -20 16 -20 -1 -7 -9 8 -20 11 -23
8 -6 -5 174 -317 183 -317 2 0 0 8 -6 18 -7 13 -5 22 11 39 19 20 19 26 8 53
-12 29 -11 34 18 68 27 34 34 37 78 36 51 -1 333 -61 347 -73 15 -15 -294
-356 -317 -348 -5 2 -35 45 -67 95 -31 51 -60 96 -64 100 -11 9 -7 3 60 -111
l58 -98 -24 -25 c-13 -15 -73 -65 -134 -112 -118 -91 -162 -130 -105 -92 199
134 445 368 592 564 88 117 86 113 68 100 -12 -9 -54 -2 -190 32 -166 42 -450
104 -478 104 -8 0 -10 -5 -6 -12 5 -9 2 -9 -9 1 -9 7 -17 10 -17 6z m170 -157
c0 -6 -6 -5 -15 2 -8 7 -15 14 -15 16 0 2 7 1 15 -2 8 -4 15 -11 15 -16z"/>
<path d="M592 4030 c1 -25 5 -30 21 -28 14 2 21 12 24 33 3 27 2 28 -11 13
-16 -22 -27 -23 -20 -3 4 8 1 15 -4 15 -6 0 -10 -14 -10 -30z"/>
<path d="M1353 4009 c-18 -5 -33 -13 -33 -18 0 -9 64 10 76 22 9 9 -2 8 -43
-4z"/>
<path d="M1454 4002 c2 -4 1 -14 -4 -22 -7 -11 -13 -11 -39 0 -28 11 -34 10
-52 -6 -11 -10 -25 -29 -32 -43 -11 -23 -10 -28 8 -45 20 -18 20 -18 -5 -3
-14 8 -27 23 -28 33 -6 31 -17 35 -30 13 -10 -16 -10 -19 -1 -13 9 5 10 2 6
-9 -4 -11 3 -26 18 -41 l24 -24 53 26 c29 14 64 29 78 32 13 3 30 15 36 28 15
30 29 42 20 18 -7 -20 -7 -20 14 -1 16 14 18 21 8 24 -7 2 -24 12 -37 22 -24
19 -46 26 -37 11z"/>
<path d="M4960 3645 c-255 -248 -350 -333 -364 -330 -14 3 -16 1 -7 -8 8 -8 0
-23 -35 -58 -40 -40 -44 -49 -35 -67 21 -39 48 -37 99 9 60 54 468 445 632
606 l125 122 -30 31 c-16 16 -31 30 -34 30 -3 0 -161 -151 -351 -335z"/>
<path d="M2559 3873 c-169 -227 -354 -406 -705 -681 -16 -13 -6 -8 21 9 185
120 508 422 646 604 79 105 93 125 86 125 -3 0 -24 -26 -48 -57z"/>
<path d="M1803 3913 c-14 -3 -25 -14 -29 -29 -3 -13 -12 -24 -20 -24 -27 0
-13 -40 52 -152 59 -101 105 -170 74 -110 -15 31 8 83 45 100 l26 12 -19 33
c-11 17 -38 65 -61 105 -23 39 -43 71 -44 71 -1 -1 -12 -4 -24 -6z m27 -65
c56 -72 56 -75 2 -23 -29 27 -52 53 -52 57 0 18 19 5 50 -34z"/>
<path d="M527 3863 c-4 -3 -7 -11 -7 -17 0 -6 5 -5 12 2 6 6 9 14 7 17 -3 3
-9 2 -12 -2z"/>
<path d="M1188 3807 c-184 -268 -318 -471 -489 -739 -57 -89 -63 -96 -76 -80
-14 16 -14 16 -9 -1 3 -10 6 -26 6 -34 0 -13 3 -13 15 -3 8 7 15 8 15 3 0 -11
50 -10 68 1 7 4 12 11 12 16 0 5 13 29 29 52 16 24 97 151 181 283 83 131 186
288 228 348 42 59 82 115 87 123 8 11 4 19 -14 33 -20 15 -22 21 -12 39 22 42
2 21 -41 -41z"/>
<path d="M1270 3851 c-13 -25 -13 -34 0 -26 6 3 10 1 10 -5 0 -6 5 -8 10 -5 6
3 10 11 10 16 0 6 -5 7 -11 3 -8 -4 -9 0 -4 15 8 26 -1 27 -15 2z"/>
<path d="M1603 3852 c3 -12 2 -20 -3 -17 -13 8 -28 -73 -80 -436 -30 -211 -56
-357 -63 -362 -16 -11 -2 -6 58 21 48 21 50 24 53 65 3 53 48 321 67 405 22
93 38 118 80 126 19 4 35 11 35 15 0 17 -114 204 -118 193 -2 -6 18 -47 44
-92 25 -44 45 -82 43 -84 -10 -9 -49 -16 -48 -9 2 8 -16 56 -27 74 -3 5 -3 9
0 9 3 0 13 -14 21 -31 9 -17 19 -28 22 -25 7 7 -48 122 -72 151 -16 20 -16 20
-12 -3z"/>
<path d="M5101 3522 c-271 -265 -333 -331 -328 -346 7 -18 18 -19 195 -12 103
3 340 11 527 16 187 5 357 13 377 16 l37 6 -26 51 c-40 79 -134 226 -212 330
-78 104 -218 267 -229 267 -4 0 -157 -148 -341 -328z"/>
<path d="M530 3830 c-11 -6 -12 -12 -4 -20 13 -13 46 -2 41 13 -5 15 -20 18
-37 7z"/>
<path d="M400 3815 c-8 -9 -8 -15 -2 -15 12 0 26 19 19 26 -2 2 -10 -2 -17
-11z"/>
<path d="M1253 3698 c-43 -57 -66 -91 -58 -86 12 7 78 98 72 98 -3 0 -9 -6
-14 -12z"/>
<path d="M475 3669 c-11 -17 1 -21 15 -4 8 9 8 15 2 15 -6 0 -14 -5 -17 -11z"/>
<path d="M1173 3588 c-15 -20 -25 -38 -20 -38 3 0 12 11 21 25 17 26 16 35 -1
13z"/>
<path d="M2290 3524 c-30 -31 -43 -49 -29 -40 22 14 96 96 87 96 -2 0 -28 -25
-58 -56z"/>
<path d="M1930 3500 c6 -11 13 -20 16 -20 2 0 0 9 -6 20 -6 11 -13 20 -16 20
-2 0 0 -9 6 -20z"/>
<path d="M500 3350 c-13 -8 -13 -10 2 -10 9 0 20 5 23 10 8 13 -5 13 -25 0z"/>
<path d="M485 3319 c-11 -17 1 -21 15 -4 8 9 8 15 2 15 -6 0 -14 -5 -17 -11z"/>
<path d="M523 3317 c4 -11 3 -16 -4 -12 -12 8 -41 -14 -33 -26 3 -5 13 -9 23
-9 22 0 36 40 19 55 -8 7 -9 5 -5 -8z"/>
<path d="M2025 3234 l-30 -26 33 22 c17 12 32 23 32 26 0 7 -4 5 -35 -22z"/>
<path d="M1794 3214 c-18 -14 -18 -15 4 -4 12 6 22 13 22 15 0 8 -5 6 -26 -11z"/>
<path d="M1744 3184 c-18 -14 -18 -15 4 -4 12 6 22 13 22 15 0 8 -5 6 -26 -11z"/>
<path d="M530 3165 c-8 -9 -8 -15 -2 -15 12 0 26 19 19 26 -2 2 -10 -2 -17
-11z"/>
<path d="M1694 3154 c-18 -14 -18 -15 4 -4 12 6 22 13 22 15 0 8 -5 6 -26 -11z"/>
<path d="M535 3139 c-4 -6 -2 -15 5 -19 17 -10 42 -1 37 14 -5 16 -34 19 -42
5z"/>
<path d="M605 3030 c-3 -5 1 -10 9 -10 9 0 16 5 16 10 0 6 -4 10 -9 10 -6 0
-13 -4 -16 -10z"/>
<path d="M5345 2939 c-247 -11 -456 -22 -464 -24 -27 -10 8 -31 244 -143 127
-60 391 -187 588 -281 197 -94 362 -171 368 -171 7 0 9 74 7 228 -5 235 -7
249 -60 385 l-10 27 -112 -1 c-61 -1 -313 -10 -561 -20z"/>
<path d="M1158 2933 c7 -3 16 -2 19 1 4 3 -2 6 -13 5 -11 0 -14 -3 -6 -6z"/>
</g>
</svg>
